<svg xmlns="http://www.w3.org/2000/svg" width="1200" height="630" viewBox="0 0 1200 630" role="img" aria-label="Feed the Frog preview">
  <defs>
    <linearGradient id="sky" x1="0" y1="0" x2="0" y2="1">
      <stop offset="0" stop-color="#2c265f"/>
      <stop offset="1" stop-color="#6a4a8a"/>
    </linearGradient>
    <linearGradient id="frog" x1="0" y1="0" x2="0" y2="1">
      <stop offset="0" stop-color="#7cc34a"/>
      <stop offset="1" stop-color="#356d22"/>
    </linearGradient>
  </defs>
  <rect width="1200" height="630" fill="url(#sky)"/>
  <circle cx="180" cy="120" r="3" fill="#ffe88a" opacity=".8"/>
  <circle cx="930" cy="150" r="4" fill="#ffe88a" opacity=".7"/>
  <circle cx="1030" cy="320" r="5" fill="#ffe88a" opacity=".7"/>
  <ellipse cx="600" cy="520" rx="430" ry="80" fill="#2e8137"/>
  <ellipse cx="600" cy="505" rx="390" ry="62" fill="#72ca4f"/>
  <ellipse cx="600" cy="350" rx="290" ry="195" fill="url(#frog)"/>
  <ellipse cx="445" cy="210" rx="82" ry="76" fill="url(#frog)"/>
  <ellipse cx="755" cy="210" rx="82" ry="76" fill="url(#frog)"/>
  <circle cx="445" cy="220" r="50" fill="#f0922e"/>
  <circle cx="755" cy="220" r="50" fill="#f0922e"/>
  <ellipse cx="445" cy="225" rx="25" ry="38" fill="#0d0a06"/>
  <ellipse cx="755" cy="225" rx="25" ry="38" fill="#0d0a06"/>
  <circle cx="430" cy="205" r="10" fill="white" opacity=".9"/>
  <circle cx="740" cy="205" r="10" fill="white" opacity=".9"/>
  <ellipse cx="600" cy="395" rx="210" ry="88" fill="#f0922e"/>
  <ellipse cx="600" cy="405" rx="180" ry="64" fill="#2c0f18"/>
  <text x="600" y="94" text-anchor="middle" font-family="Segoe UI, Arial, sans-serif" font-weight="900" font-size="68" fill="#ffd9a0" letter-spacing="4">FEED THE FROG</text>
  <text x="600" y="590" text-anchor="middle" font-family="Segoe UI, Arial, sans-serif" font-weight="800" font-size="34" fill="#ffe9c2">Drag the food. Regret the food.</text>
</svg>
